<svg id="visual" viewBox="0 0 900 600" width="900" height="600" xmlns="http://www.w3.org/2000/svg" xmlns:xlink="http://www.w3.org/1999/xlink" version="1.1"><rect x="0" y="0" width="900" height="600" fill="#023047"></rect><defs><linearGradient id="grad1_0" x1="33.3%" y1="0%" x2="100%" y2="100%"><stop offset="20%" stop-color="#023047" stop-opacity="1"></stop><stop offset="80%" stop-color="#023047" stop-opacity="1"></stop></linearGradient></defs><defs><linearGradient id="grad2_0" x1="0%" y1="0%" x2="66.7%" y2="100%"><stop offset="20%" stop-color="#023047" stop-opacity="1"></stop><stop offset="80%" stop-color="#023047" stop-opacity="1"></stop></linearGradient></defs><g transform="translate(900, 0)"><path d="M0 405.6C-74.5 397 -148.9 388.5 -202.8 351.3C-256.7 314.1 -290.1 248.3 -320.4 185C-350.8 121.7 -378.2 60.8 -405.6 0L0 0Z" fill="#ffb703"></path></g><g transform="translate(0, 600)"><path d="M0 -405.6C49.1 -357.9 98.2 -310.2 163 -282.3C227.8 -254.5 308.2 -246.6 351.3 -202.8C394.3 -159.1 400 -79.5 405.6 0L0 0Z" fill="#ffb703"></path></g></svg>